<?xml version="1.0" ?><!DOCTYPE svg  PUBLIC '-//W3C//DTD SVG 1.1//EN'  'http://www.w3.org/Graphics/SVG/1.1/DTD/svg11.dtd'><svg height="100%" style="fill-rule:evenodd;clip-rule:evenodd;stroke-linejoin:round;stroke-miterlimit:2;" version="1.1" viewBox="0 0 32 32" width="100%" xml:space="preserve" xmlns="http://www.w3.org/2000/svg" xmlns:serif="http://www.serif.com/" xmlns:xlink="http://www.w3.org/1999/xlink"><path d="M12.99,4l6,-0c0.552,-0 1,-0.448 1,-1c0,-0.552 -0.448,-1 -1,-1l-6,-0c-0.552,-0 -1,0.448 -1,1c0,0.552 0.448,1 1,1Z"/><path d="M14.989,17.653l-4.226,5.104c-0.352,0.425 -0.292,1.056 0.133,1.408c0.425,0.352 1.056,0.292 1.408,-0.133l4.459,-5.385c0.172,-0.208 0.246,-0.466 0.226,-0.715l0.002,-6.932c-0,-0.552 -0.448,-1 -1,-1c-0.552,-0 -1,0.448 -1,1l-0.002,6.653Z"/><path d="M24.205,9.205l1.502,-1.502c0.39,-0.39 0.39,-1.024 0,-1.414c-0.39,-0.39 -1.024,-0.39 -1.414,-0l-1.666,1.666c-1.899,-1.262 -4.178,-1.997 -6.627,-1.997c-6.623,0 -12,5.377 -12,12c-0,6.623 5.377,12 12,12c6.623,0 12,-5.377 12,-12c-0,-3.451 -1.46,-6.563 -3.795,-8.753Zm-8.205,-1.247c5.519,0 10,4.481 10,10c-0,5.519 -4.481,10 -10,10c-5.519,0 -10,-4.481 -10,-10c-0,-5.519 4.481,-10 10,-10Z"/></svg>